<?xml version="1.0" encoding="UTF-8"?><svg xmlns="http://www.w3.org/2000/svg" width="58" height="28" role="img" aria-label="CSS" viewBox="0 0 58 28"><rect width="58" height="28" rx="4" ry="4" fill="#0d2e3f"/><path d="M6.947 6 8.23 20.4l5.76 1.6 5.78-1.603L21.053 6H6.947ZM18.1 12.52l-.043.473-.417 4.65-.027.297-3.613 1v.003l-.007.003-3.62-1.007-.247-2.773h1.773l.127 1.41 1.967.53H14l1.963-.53.207-2.293h-6.123L9.89 12.52h6.433l.16-1.81h-6.75L9.57 8.943h8.847L18.1 12.52Z" fill="#73d4ff"/><path d="M45.29 17.446c.996 0 1.739-.188 2.229-.565s.735-.942.735-1.696c0-.57-.16-1.036-.48-1.4s-.789-.69-1.406-.979l-1.219-.574c-.282-.133-.494-.284-.639-.454s-.217-.389-.217-.659c0-.379.11-.665.331-.858s.533-.29.935-.29c.325 0 .636.063.935.19s.62.331.964.612l.82-.832c-.398-.371-.813-.639-1.242-.803s-.923-.246-1.482-.246c-.8 0-1.42.199-1.857.598s-.656.961-.656 1.688c0 .54.151.99.454 1.354s.738.674 1.304.932l1.441.656c.508.231.762.594.762 1.09 0 .391-.132.682-.398.873s-.672.287-1.219.287c-.379 0-.769-.048-1.169-.144s-.815-.235-1.245-.419l-.152 1.184c.352.153.734.267 1.146.343s.854.114 1.327.114Zm-7.031 0c.996 0 1.739-.188 2.229-.565.49-.377.736-.942.736-1.696 0-.57-.159-1.036-.48-1.4s-.79-.69-1.407-.979l-1.219-.574c-.282-.133-.494-.284-.639-.454s-.217-.389-.217-.659c0-.379.11-.665.331-.858s.533-.29.935-.29c.325 0 .637.063.935.19s.62.331.964.612l.82-.832c-.399-.371-.813-.639-1.243-.803-.429-.164-.923-.246-1.482-.246-.8 0-1.42.199-1.857.598s-.656.961-.656 1.688c0 .54.151.99.454 1.354s.738.674 1.304.932l1.441.656c.508.231.762.594.762 1.09 0 .391-.132.682-.398.873s-.672.287-1.219.287c-.379 0-.769-.048-1.169-.144s-.815-.235-1.245-.419l-.152 1.184c.352.153.734.267 1.146.343s.854.114 1.327.114Zm-5.875 0c.75 0 1.465-.132 2.145-.398l-.27-1.031c-.551.235-1.11.352-1.676.352-1.883 0-2.824-1.09-2.824-3.27 0-1 .228-1.771.683-2.314s1.059-.814 1.813-.814c.317 0 .61.073.882.217s.495.349.671.615l.867-.861c-.196-.336-.506-.595-.932-.776s-.926-.272-1.5-.272c-1.188 0-2.107.372-2.76 1.116s-.979 1.794-.979 3.149c0 2.859 1.293 4.289 3.879 4.289Z" fill="#fff"/></svg>