<?xml version="1.0" encoding="UTF-8"?><svg xmlns="http://www.w3.org/2000/svg" width="107" height="28" role="img" aria-label="Express.js" viewBox="0 0 107 28"><rect width="107" height="28" rx="4" ry="4" fill="#242425"/><path d="M18.157 7.372c-3.716-2.918-9.126-.959-10.447 3.756-.218.775-.322 1.585-.482 2.378 0 .448 0 .89-.006 1.338.052.258.121.523.155.781.218 1.66.718 3.193 1.884 4.422 1.981 2.096 5.749 2.584 8.391 1.074 1.757-1.005 2.596-2.613 2.969-4.543-.724-.218-1.114-.098-1.35.678-.465 1.539-1.39 2.768-2.963 3.297-4.48 1.505-7.994-1.447-7.811-6.329h12.267c.109-2.722-.431-5.134-2.607-6.852ZM8.52 13.179c.144-3.641 2.516-6.088 5.812-6.065 3.004.023 5.203 2.533 5.278 6.065H8.52Z" fill="#fff"/><path d="M30.156 9.012h4.289v1.113h-4.289v2.484h3.234v1.113h-3.234v2.496h4.289v1.113h-5.508v-8.32h1.219Zm10.178 0-1.788 3.187-1.787-3.187h-1.348l2.551 4.201-2.551 4.119h1.348l1.787-3.123 1.788 3.123h1.348l-2.551-4.119 2.551-4.201h-1.348Zm7.486.697c.537.465.806 1.15.806 2.057 0 .98-.269 1.724-.806 2.229s-1.327.759-2.37.759h-1.23v2.578h-1.219v-8.32h2.449c1.043 0 1.833.232 2.37.697Zm-.425 2.057c0-.539-.164-.947-.492-1.225s-.812-.416-1.453-.416h-1.23v3.516h1.23c.641 0 1.125-.159 1.453-.478s.492-.784.492-1.397Zm6.669 2.163 1.722 3.403H54.38l-1.509-3.171c-.033 0-.062.007-.096.007h-1.641v3.164h-1.219v-8.32h2.86c.863 0 1.53.219 2.001.656s.706 1.059.706 1.863c0 .836-.235 1.484-.706 1.945-.199.195-.442.34-.711.452Zm-2.93-.874h1.641c.465 0 .827-.123 1.087-.369s.39-.592.39-1.037c0-.488-.13-.864-.39-1.128s-.622-.396-1.087-.396h-1.641v2.93Zm5.929-4.043v8.32h5.508v-1.113h-4.289v-2.496h3.234V12.61h-3.234v-2.484h4.289V9.013h-5.508Zm9.592.961c.324 0 .636.063.935.19s.62.331.964.612l.82-.832c-.398-.371-.812-.639-1.242-.803s-.924-.246-1.482-.246c-.801 0-1.42.199-1.857.598s-.656.961-.656 1.688c0 .539.151.99.454 1.354s.737.674 1.304.932l1.441.656c.508.23.762.594.762 1.09 0 .391-.133.682-.398.873s-.672.287-1.219.287c-.379 0-.769-.048-1.169-.144s-.815-.235-1.245-.419l-.152 1.184c.352.152.733.267 1.146.343s.854.114 1.327.114c.996 0 1.739-.188 2.229-.565s.735-.942.735-1.696c0-.57-.16-1.037-.48-1.4s-.789-.689-1.406-.979l-1.219-.574c-.281-.133-.494-.284-.639-.454s-.217-.39-.217-.659c0-.379.11-.665.331-.858s.532-.29.935-.29Zm7.032 0c.324 0 .636.063.935.19s.62.331.964.612l.82-.832c-.398-.371-.812-.639-1.242-.803s-.924-.246-1.482-.246c-.801 0-1.42.199-1.857.598s-.656.961-.656 1.688c0 .539.151.99.454 1.354s.737.674 1.304.932l1.441.656c.508.23.762.594.762 1.09 0 .391-.133.682-.398.873s-.672.287-1.219.287c-.379 0-.769-.048-1.169-.144s-.815-.235-1.245-.419l-.152 1.184c.352.152.733.267 1.146.343s.854.114 1.327.114c.996 0 1.739-.188 2.229-.565s.735-.942.735-1.696c0-.57-.16-1.037-.48-1.4s-.789-.689-1.406-.979l-1.219-.574c-.281-.133-.494-.284-.639-.454s-.217-.39-.217-.659c0-.379.11-.665.331-.858s.532-.29.935-.29Zm7.048 5.742c-.238 0-.442.084-.612.252s-.255.373-.255.615c0 .238.085.442.255.612s.374.255.612.255c.242 0 .447-.085.615-.255s.252-.374.252-.612c0-.242-.084-.447-.252-.615s-.373-.252-.615-.252Zm8.52-6.703h-2.133v1.113h2.133v4.418c0 .59-.14 1.046-.419 1.368s-.677.483-1.192.483c-.531 0-.942-.162-1.233-.486s-.437-.779-.437-1.365h-1.219c0 .918.248 1.632.744 2.142s1.201.765 2.115.765c.898 0 1.6-.254 2.104-.762s.756-1.223.756-2.145V9.012h-1.219Zm6.334 3.797-1.219-.574c-.281-.133-.494-.284-.639-.454s-.217-.39-.217-.659c0-.379.11-.665.331-.858s.532-.29.935-.29c.324 0 .636.063.935.19s.62.331.964.612l.82-.832c-.398-.371-.812-.639-1.242-.803s-.924-.246-1.482-.246c-.801 0-1.42.199-1.857.598s-.656.961-.656 1.688c0 .539.151.99.454 1.354s.737.674 1.304.932l1.441.656c.508.23.762.594.762 1.09 0 .391-.133.682-.398.873s-.672.287-1.219.287c-.379 0-.769-.048-1.169-.144s-.815-.235-1.245-.419l-.152 1.184c.352.152.733.267 1.146.343s.854.114 1.327.114c.996 0 1.739-.188 2.229-.565s.735-.942.735-1.696c0-.57-.16-1.037-.48-1.4s-.789-.689-1.406-.979Z" fill="#fff"/></svg>