<?xml version="1.0" encoding="UTF-8"?><svg xmlns="http://www.w3.org/2000/svg" width="72" height="28" role="img" aria-label="Flask" viewBox="0 0 72 28"><rect width="72" height="28" rx="4" ry="4" fill="#0d323a"/><path d="M21.922 18.443l-.389-.593c-.056-.065-.147-.088-.227-.057l-.499.192c-.056-.066-.148-.089-.228-.057l-.489.192c-.052.02-.067.059-.057.11l.031.155c-.919.099-2.471.05-3.862-1.042-.616-.483-1.192-1.165-1.673-2.119l-4.632 2.36c.847.931 1.91 1.756 3.231 2.253 1.838.692 4.18.758 7.131-.431l.017.083c.015.094.127.193.28.133l.491-.191c.168-.063.17-.193.145-.276l.631-.247c.071-.027.291-.197.102-.465h-.002Zm-8.288-5.858-5.493 2.459c.347.663.751 1.294 1.207 1.887l4.842-2.467c-.105-.271-.206-.566-.555-1.879Zm-.45-4.666c-.002-.133-.016-.177-.087-.218-.068-.045-.17-.046-.267-.003L6.281 10.503c-.101.046-.185.124-.239.221-.049.093-.055.191-.016.261l.547 1.004.007.012c.058.094.192.119.329.059l.04-.018c.172.717.452 1.614.825 2.253l5.705-2.553c-.082-.74-.306-2.867-.297-3.823Z" fill="#53eafd"/><path d="M30.273 9.011h4.289v1.113h-4.289v2.836h3.234v1.113h-3.234v3.258h-1.219v-8.32h1.219Zm6.915 0h-1.219v8.32h5.508v-1.113h-4.29V9.011Zm9.24 0 2.402 8.32H47.6l-.546-2.027h-2.951l-.546 2.027h-1.23l2.402-8.32h1.699Zm.327 5.179-1.123-4.172h-.105l-1.123 4.172h2.352Zm5.837-4.218c.324 0 .636.063.935.19s.62.331.964.612l.82-.832c-.398-.371-.812-.639-1.242-.803s-.924-.246-1.482-.246c-.801 0-1.42.199-1.857.598-.438.398-.656.961-.656 1.688 0 .539.151.99.454 1.354s.737.674 1.303.932l1.441.656c.508.23.762.594.762 1.09 0 .391-.133.682-.398.873s-.672.287-1.219.287c-.379 0-.769-.048-1.169-.144s-.815-.235-1.245-.419l-.152 1.184c.352.152.733.267 1.146.343.412.076.854.114 1.327.114.996 0 1.739-.188 2.229-.565s.735-.942.735-1.696c0-.57-.16-1.037-.48-1.4s-.789-.689-1.406-.979l-1.219-.574c-.281-.133-.494-.284-.639-.454s-.217-.39-.217-.659c0-.379.11-.665.331-.858s.532-.29.935-.29Zm10.342 7.359-2.087-3.926c.146-.145.3-.281.428-.448.41-.533.723-1.14.938-1.819s.322-1.389.322-2.127h-1.207c0 .574-.069 1.13-.208 1.667s-.35 1.02-.633 1.447-.644.768-1.081 1.02c-.34.196-.745.292-1.184.336v-4.47h-1.219v8.32h1.219v-2.674c.565-.052 1.082-.196 1.547-.438.034-.018.061-.045.095-.063l1.651 3.174h1.418Z" fill="#fff"/></svg>