<?xml version="1.0" encoding="UTF-8"?><svg xmlns="http://www.w3.org/2000/svg" width="58" height="28" role="img" aria-label="Git" viewBox="0 0 58 28"><rect width="58" height="28" rx="4" ry="4" fill="#41220e"/><path d="M21.697 13.286 14.711 6.3c-.402-.402-1.054-.402-1.457 0l-1.45 1.451 1.84 1.84c.428-.145.918-.048 1.259.293.343.343.439.838.291 1.267l1.774 1.773c.43-.148.924-.052 1.267.291.479.479.479 1.255 0 1.734s-1.255.479-1.734 0c-.36-.36-.45-.889-.267-1.333L14.58 11.962v4.353c.117.058.227.135.324.232.479.479.479 1.255 0 1.734s-1.256.479-1.734 0c-.479-.48-.479-1.255 0-1.734.119-.119.256-.208.402-.268V11.886c-.147-.06-.283-.149-.402-.268-.363-.362-.45-.895-.264-1.34L11.092 8.464l-4.79 4.79c-.402.403-.402 1.056 0 1.458l6.986 6.986c.402.402 1.054.402 1.457 0l6.953-6.953c.402-.403.402-1.056 0-1.458Z" fill="#ffb86a"/><path d="M48.626 9.011v1.113H46.188v7.207H44.969V10.124H42.531V9.011h6.094Zm-10.694 0h3.147v1.113H39.151v6.094h1.928v1.113H36.016V16.218h1.916V10.124H36.016V9.011h1.916ZM30.297 10.79c.438-.545 1.051-.817 1.84-.817.313 0 .604.073.876.217s.497.349.677.615l.873-.867c-.207-.333-.53-.59-.967-.771s-.947-.272-1.529-.272c-1.164 0-2.068.372-2.713 1.116s-.967 1.794-.967 3.149c0 1.43.311 2.502.932 3.217s1.553 1.072 2.795 1.072c.527 0 .997-.046 1.409-.138s.7-.163.864-.214V13.171H31.575v1.113h1.652v1.979c-.282.071-.605.107-.973.107-.867 0-1.52-.272-1.957-.817s-.656-1.362-.656-2.452c0-.997.218-1.767.656-2.312Z" fill="#fff"/></svg>