<?xml version="1.0" encoding="UTF-8"?><svg xmlns="http://www.w3.org/2000/svg" width="79" height="28" role="img" aria-label="GitHub" viewBox="0 0 79 28"><rect width="79" height="28" rx="4" ry="4" fill="#242425"/><path d="M14 6.197c4.42 0 8 3.58 8 8 0 3.53-2.29 6.53-5.45 7.59-.4.08-.55-.17-.55-.38 0-.27.01-1.13.01-2.2 0-.75-.25-1.23-.54-1.48 1.78-.2 3.65-.88 3.65-3.95 0-.88-.31-1.59-.82-2.15.08-.2.36-1.02-.08-2.12 0 0-.67-.22-2.2.82-.64-.18-1.32-.27-2-.27s-1.36.09-2 .27c-1.53-1.03-2.2-.82-2.2-.82-.44 1.1-.16 1.92-.08 2.12-.51.56-.82 1.28-.82 2.15 0 3.06 1.86 3.75 3.64 3.95-.23.2-.44.55-.51 1.07-.46.21-1.61.55-2.33-.66-.15-.24-.6-.83-1.23-.82-.67.01-.27.38.01.53.34.19.73.9.82 1.13.16.45.68 1.31 2.69.94 0 .67.01 1.3.01 1.49 0 .21-.15.45-.55.38-3.18-1.06-5.47-4.05-5.47-7.59 0-4.42 3.58-8 8-8Z" fill="#fff"/><path d="M68.143 15.863c.285-.236.428-.567.428-.993 0-.438-.148-.777-.445-1.017s-.719-.36-1.266-.36H65.313v2.725h1.629c.515 0 .916-.118 1.201-.354Zm-1.634-5.738H65.314v2.256h1.277c.441 0 .784-.098 1.028-.296s.366-.48.366-.847c0-.359-.128-.635-.384-.826s-.62-.287-1.093-.287Zm2.6 3.379c.461.363.691.877.691 1.541 0 .727-.219 1.289-.656 1.688s-1.058.598-1.863.598H64.093V9.011h2.473c.844 0 1.496.182 1.957.548s.691.886.691 1.562c0 .574-.218 1.016-.656 1.327-.336.239-.783.384-1.336.439v.078c.808.01 1.44.188 1.887.541ZM61.116 14.66V9.012h1.219V14.66c0 .93-.23 1.627-.691 2.092s-1.136.697-2.027.697c-1.781 0-2.672-.93-2.672-2.789V9.012h1.219V14.66c0 .555.119.973.357 1.254s.611.422 1.119.422c.985 0 1.477-.559 1.477-1.676Zm-7.03-2.027V9.012h1.219v8.32H54.086V13.746H51.133v3.586H49.915V9.012h1.218v3.621h2.953ZM44.97 9.012h3.656v1.113H46.188v7.207H44.969V10.125H42.531V9.012h2.438Zm-7.038 0h3.147v1.113H39.151v6.094h1.928v1.113H36.016V16.219h1.916V10.125H36.016V9.012h1.916Zm-5.795.96c-.789 0-1.403.272-1.84.817s-.656 1.316-.656 2.312c0 1.09.219 1.907.656 2.452s1.09.817 1.957.817c.368 0 .692-.036.973-.107V14.284H31.575V13.171h2.812v3.926c-.164.051-.452.122-.864.214s-.882.138-1.409.138c-1.242 0-2.174-.357-2.795-1.072s-.932-1.787-.932-3.217c0-1.355.322-2.405.967-3.149s1.549-1.116 2.713-1.116c.582 0 1.091.09 1.529.272s.76.439.967.771l-.873.867c-.18-.265-.405-.47-.677-.615s-.564-.217-.876-.217Z" fill="#fff"/></svg>