<?xml version="1.0" encoding="UTF-8"?><svg xmlns="http://www.w3.org/2000/svg" width="65" height="28" role="img" aria-label="HTML" viewBox="0 0 65 28"><rect width="65" height="28" rx="4" ry="4" fill="#41220e"/><path d="m18.39 9.407.033-.47H9.576l.033.47.437 4.873h6.127l-.22 2.283-1.97.53-1.967-.53-.127-1.407h-1.75l.22 2.78 3.623 1 .033-.01 3.593-.99.03-.31.407-4.657.063-.47h-6.437l-.157-1.813h6.75l.03-.373.093-.907ZM6.953 6h14.093l-1.28 14.373L13.983 22l-5.75-1.627L6.953 6Z" fill="#ffb86a"/><path d="M32.992 9.011h1.219v8.32h-1.219v-3.586h-2.953v3.586H28.82v-8.32h1.219v3.621h2.953V9.011Zm4.946 0H35.5v1.113h2.438v7.207h1.219v-7.207h2.438V9.011h-3.657Zm9.234 0h-.645l-.902 3.574h-.094l-.902-3.574h-1.816v8.32h1.172v-6.844h.152l.902 3.445h1.078l.902-3.445h.152v6.844h1.172v-8.32h-1.172Zm4.078 7.207V9.011h-1.218v8.32h5.507v-1.113H51.25Z" fill="#fff"/></svg>