<?xml version="1.0" encoding="UTF-8"?><svg xmlns="http://www.w3.org/2000/svg" width="107" height="28" role="img" aria-label="JavaScript" viewBox="0 0 107 28"><rect width="107" height="28" rx="4" ry="4" fill="#3d300e"/><path d="M19.667 6H8.334c-1.29 0-2.333 1.043-2.333 2.333v11.333c0 1.29 1.043 2.333 2.333 2.333h11.333c1.29 0 2.333-1.043 2.333-2.333V8.333C22 7.043 20.957 6 19.667 6Zm-4.69 13.853c-.33.32-.797.48-1.407.48-.17 0-.34-.017-.513-.05s-.353-.09-.533-.17l.37-.933c.103.047.2.083.283.11.083.023.18.037.283.037.26 0 .453-.07.577-.21.127-.14.19-.373.19-.697l.023-3.78h1.213l.003 3.783c0 .63-.163 1.107-.49 1.43Zm4.84-.006c-.37.33-.907.493-1.607.493-.317 0-.64-.043-.97-.127-.333-.083-.63-.2-.893-.35l.503-.953c.28.167.527.283.74.343.21.063.43.093.663.093.3 0 .523-.06.673-.177.15-.12.223-.283.223-.497 0-.193-.06-.347-.18-.453-.12-.11-.337-.2-.65-.277-.62-.147-1.07-.35-1.353-.61-.28-.263-.42-.627-.42-1.093 0-.47.18-.87.543-1.2s.873-.493 1.53-.493c.273 0 .543.03.807.093s.517.153.76.277l-.467.96c-.213-.12-.413-.207-.607-.26-.19-.053-.37-.08-.537-.08-.257 0-.46.053-.603.157-.143.1-.217.25-.217.443 0 .173.067.307.197.4.133.093.367.183.71.267.6.14 1.037.347 1.303.62.27.27.403.653.403 1.147 0 .527-.187.95-.553 1.277Z" fill="#ffdf20"/><path d="M33.602 9.011h.621v5.531c0 .922-.252 1.637-.756 2.145s-1.205.762-2.104.762c-.914 0-1.619-.255-2.115-.765s-.744-1.224-.744-2.142h1.219c0 .586.146 1.041.437 1.365s.702.486 1.233.486c.516 0 .913-.161 1.192-.483s.419-.778.419-1.368v-4.418h-2.133V9.011h2.73Zm5.794 0 2.403 8.32h-1.23l-.546-2.027h-2.952l-.546 2.027h-1.23l2.402-8.32h1.699Zm.327 5.179-1.123-4.172h-.105l-1.123 4.172h2.352Zm5.908 2.145h-.105l-1.945-7.324h-1.254l2.344 8.32h1.816l2.344-8.32h-1.254l-1.945 7.324ZM53.46 9.011l2.402 8.32h-1.23l-.546-2.027h-2.952l-.546 2.027h-1.23l2.403-8.32h1.699Zm.326 5.179-1.123-4.172h-.105l-1.123 4.172h2.352Zm5.838-4.218c.324 0 .636.063.935.19s.62.331.964.612l.82-.832c-.398-.371-.812-.639-1.242-.803s-.924-.246-1.482-.246c-.801 0-1.42.199-1.857.598s-.656.961-.656 1.688c0 .539.151.99.454 1.354s.737.674 1.304.932l1.441.656c.508.23.762.594.762 1.09 0 .391-.133.682-.398.873s-.672.287-1.219.287c-.379 0-.769-.048-1.169-.144s-.815-.235-1.245-.419l-.152 1.184c.352.152.733.267 1.146.343s.854.114 1.327.114c.996 0 1.739-.188 2.229-.565s.735-.942.735-1.696c0-.57-.16-1.037-.48-1.4s-.789-.689-1.406-.979l-1.219-.574c-.281-.133-.494-.284-.639-.454s-.217-.39-.217-.659c0-.379.11-.665.331-.858s.532-.29.935-.29Zm7.787 0c.316 0 .61.072.882.217s.495.35.671.615l.867-.861c-.195-.336-.506-.595-.932-.776s-.926-.272-1.5-.272c-1.188 0-2.107.372-2.76 1.116s-.979 1.794-.979 3.149c0 2.859 1.293 4.289 3.879 4.289.75 0 1.465-.133 2.145-.398l-.27-1.031c-.551.234-1.109.352-1.676.352-1.883 0-2.824-1.09-2.824-3.27 0-1 .228-1.771.683-2.314s1.06-.814 1.813-.814Zm7.747 3.956 1.722 3.403h-1.406l-1.509-3.171c-.033 0-.062.007-.096.007h-1.641v3.164h-1.219v-8.32h2.859c.863 0 1.53.219 2.001.656s.706 1.059.706 1.863c0 .836-.235 1.484-.706 1.945-.199.195-.442.34-.711.452Zm-2.93-.874h1.641c.465 0 .827-.123 1.087-.369s.39-.592.39-1.037c0-.488-.13-.864-.39-1.128s-.622-.396-1.087-.396h-1.641v2.93ZM80.12 9.011h-1.916v1.113h1.916v6.094h-1.916v1.113h5.062v-1.113h-1.928v-6.094h1.928V9.011H80.12Zm9.888.697c.537.465.806 1.15.806 2.057 0 .98-.269 1.724-.806 2.229s-1.327.759-2.37.759h-1.23v2.578h-1.219v-8.32h2.449c1.043 0 1.833.232 2.37.697Zm-.425 2.057c0-.539-.164-.947-.492-1.225s-.812-.416-1.453-.416h-1.23v3.516h1.23c.641 0 1.125-.159 1.453-.478s.492-.784.492-1.397Zm8.262-2.754h-6.094v1.113h2.438v7.207h1.219v-7.207h2.438V9.011Z" fill="#fff"/></svg>