<?xml version="1.0" encoding="UTF-8"?><svg xmlns="http://www.w3.org/2000/svg" width="86" height="28" role="img" aria-label="Node.js" viewBox="0 0 86 28"><rect width="86" height="28" rx="4" ry="4" fill="#26360e"/><path d="M14.003 22c-.214 0-.427-.056-.615-.164l-1.957-1.159c-.292-.163-.15-.221-.053-.255.39-.136.469-.167.885-.404.044-.025.101-.016.146.01l1.504.892c.054.029.131.029.182 0l5.863-3.384c.054-.031.09-.094.09-.158v-6.766c0-.068-.035-.128-.091-.161l-5.86-3.381c-.054-.032-.126-.032-.181 0l-5.859 3.381c-.057.032-.093.095-.093.16v6.766c0 .065.035.126.091.157l1.606.928c.872.436 1.404-.078 1.404-.594V11.19c0-.095.075-.169.17-.169h.743c.092 0 .169.073.169.169v6.68c0 1.162-.634 1.83-1.736 1.83-.339 0-.606 0-1.352-.367l-1.538-.886c-.38-.22-.615-.631-.615-1.07v-6.765c0-.44.235-.851.615-1.068l5.869-3.386c.371-.21.864-.21 1.233 0l5.861 3.387c.379.219.615.628.615 1.068v6.766c0 .439-.236.848-.615 1.068l-5.861 3.386c-.188.109-.401.164-.618.164m1.809-4.659c-2.565 0-3.103-1.178-3.103-2.165 0-.094.076-.169.17-.169h.757c.084 0 .154.061.167.144.114.772.455 1.161 2.006 1.161 1.236 0 1.761-.279 1.761-.934 0-.377-.15-.657-2.069-.845-1.606-.158-2.598-.512-2.598-1.796 0-1.183.998-1.887 2.67-1.887 1.877 0 2.807.652 2.925 2.052.004.048-.013.095-.045.131-.032.034-.078.054-.125.054h-.762c-.079 0-.148-.056-.164-.132-.183-.812-.627-1.071-1.832-1.071-1.349 0-1.506.47-1.506.822 0 .427.185.552 2.005.792 1.802.239 2.658.577 2.658 1.843 0 1.277-1.065 2.009-2.923 2.009" fill="#bbf451"/><path d="M32.945 9.012h1.219v8.32h-1.57l-2.391-6.328h-.117v6.328h-1.219v-8.32h1.57l2.391 6.328h.117V9.012Zm8.673 4.218c0 2.812-1.023 4.219-3.071 4.219s-3.07-1.406-3.07-4.219c0-2.891 1.023-4.336 3.07-4.336s3.071 1.445 3.071 4.336Zm-1.254 0c0-2.172-.606-3.258-1.817-3.258s-1.816 1.086-1.816 3.258c0 2.094.605 3.141 1.816 3.141s1.817-1.047 1.817-3.141Zm8.344.059c0 2.695-1.27 4.043-3.809 4.043h-2.016v-8.32h2.016c2.539 0 3.809 1.426 3.809 4.277Zm-1.231 0c0-1.059-.216-1.851-.647-2.376s-1.075-.788-1.931-.788h-.797v6.094h.797c.855 0 1.499-.244 1.931-.732s.647-1.221.647-2.197Zm2.555-4.277v8.32h5.508v-1.113h-4.289v-2.496h3.234V12.61h-3.234v-2.484h4.289V9.013h-5.508Zm9.61 6.703c-.238 0-.442.084-.612.252s-.255.373-.255.615c0 .238.085.442.255.612s.374.255.612.255c.242 0 .447-.085.615-.255s.252-.374.252-.612c0-.242-.084-.447-.252-.615s-.373-.252-.615-.252Zm8.519-6.703h-2.133v1.113h2.133v4.418c0 .59-.14 1.046-.419 1.368s-.677.483-1.192.483c-.531 0-.942-.162-1.233-.486s-.437-.779-.437-1.365h-1.219c0 .918.248 1.632.744 2.142s1.201.765 2.115.765c.898 0 1.6-.254 2.104-.762s.756-1.223.756-2.145V9.012h-1.219Zm6.334 3.797-1.219-.574c-.281-.133-.494-.284-.639-.454s-.217-.39-.217-.659c0-.379.11-.665.331-.858s.532-.29.935-.29c.324 0 .636.063.935.19s.62.331.964.612l.82-.832c-.398-.371-.812-.639-1.242-.803s-.924-.246-1.482-.246c-.801 0-1.42.199-1.857.598s-.656.961-.656 1.688c0 .539.151.99.454 1.354s.737.674 1.304.932l1.441.656c.508.23.762.594.762 1.09 0 .391-.133.682-.398.873s-.672.287-1.219.287c-.379 0-.769-.048-1.169-.144s-.815-.235-1.245-.419l-.152 1.184c.352.152.733.267 1.146.343s.854.114 1.327.114c.996 0 1.739-.188 2.229-.565s.735-.942.735-1.696c0-.57-.16-1.037-.48-1.4s-.789-.689-1.406-.979Z" fill="#fff"/></svg>