<?xml version="1.0" encoding="UTF-8"?><svg xmlns="http://www.w3.org/2000/svg" width="107" height="28" role="img" aria-label="PostgreSQL" viewBox="0 0 107 28"><rect width="107" height="28" rx="4" ry="4" fill="#162642"/><path d="M17.39 6c-.622.005-1.24.095-1.837.269l-.042.013c-.377-.067-.758-.103-1.14-.11-.785-.013-1.46.177-2.004.495-.536-.186-1.648-.507-2.82-.443-.816.045-1.707.293-2.367.989-.658.697-1.006 1.775-.933 3.241.02.405.135 1.065.327 1.919s.46 1.855.795 2.768.703 1.733 1.277 2.291c.287.279.681.514 1.147.495.327-.013.622-.157.877-.368.124.163.257.235.377.301.152.083.3.14.453.177.275.069.747.161 1.299.067.188-.031.386-.093.583-.18.007.22.016.435.025.653.027.691.045 1.329.252 1.888.033.091.125.562.485.977.36.416 1.065.675 1.869.503.567-.121 1.287-.34 1.766-1.021.473-.673.687-1.639.729-3.206.011-.085.023-.157.037-.224l.113.01h.013c.605.027 1.261-.059 1.809-.313.485-.225.853-.452 1.12-.855.067-.1.14-.221.16-.429s-.099-.533-.297-.683c-.397-.301-.646-.187-.913-.131-.263.058-.532.091-.801.097.771-1.298 1.323-2.677 1.639-3.897.187-.72.291-1.384.3-1.965s-.039-1.095-.387-1.539c-1.087-1.389-2.616-1.773-3.799-1.787-.037 0-.073-.001-.11 0V6Zm-.031.427c1.119-.011 2.548.303 3.574 1.615.231.295.299.725.291 1.256-.009.53-.107 1.165-.286 1.86-.348 1.347-1.005 2.917-1.931 4.325.033.023.068.042.105.057.193.08.634.149 1.513-.032.221-.047.383-.078.551.05.083.07.128.175.122.283-.009.081-.039.158-.087.224-.17.255-.505.497-.935.697-.381.177-.927.27-1.411.275-.243.003-.467-.016-.657-.075l-.012-.005c-.073.707-.242 2.102-.352 2.739-.088.513-.242.921-.536 1.227-.293.305-.709.489-1.267.609-.692.149-1.197-.011-1.522-.285-.325-.273-.473-.636-.563-.858-.061-.153-.093-.352-.124-.617s-.053-.59-.069-.956c-.02-.56-.027-1.121-.02-1.682-.289.265-.648.441-1.035.507-.459.078-.869.001-1.114-.06-.121-.03-.237-.075-.347-.134-.113-.061-.221-.129-.293-.265-.042-.078-.056-.168-.038-.254.023-.088.074-.165.145-.221.132-.107.307-.167.57-.222.479-.099.647-.166.749-.247.087-.069.185-.209.358-.415 0-.009-.001-.018-.002-.027-.31-.009-.614-.09-.887-.239-.1.105-.611.645-1.233 1.395-.262.313-.551.493-.857.506-.305.013-.581-.141-.816-.368-.469-.455-.843-1.239-1.169-2.124-.325-.885-.59-1.871-.778-2.711-.189-.84-.3-1.517-.316-1.844-.07-1.388.255-2.323.811-2.913.557-.59 1.321-.813 2.066-.856 1.337-.077 2.606.389 2.863.489.495-.336 1.132-.545 1.928-.532.378.005.754.054 1.121.145l.013-.006c.161-.057.326-.104.493-.143.453-.106.916-.162 1.381-.167Zm.101.446h-.097c-.382.005-.762.048-1.136.128.831.368 1.458.935 1.9 1.5.307.391.561.822.755 1.28.073.176.123.325.151.44.014.058.023.107.027.157.001.025.003.051-.008.096 0 .002-.003.007-.004.009.02.584-.125.98-.142 1.537-.013.404.09.879.115 1.397.024.487-.035 1.021-.351 1.546.027.032.051.064.076.096.836-1.317 1.439-2.773 1.76-4.015.172-.669.263-1.275.271-1.755.007-.48-.083-.828-.197-.973-.895-1.144-2.105-1.435-3.12-1.443Zm-3.193.171c-.788.002-1.353.24-1.782.597-.442.369-.739.873-.933 1.39-.231.613-.311 1.207-.342 1.609l.009-.005c.238-.133.551-.267.885-.344.335-.077.695-.101 1.022.026s.597.425.695.877c.469 2.171-.146 2.979-.373 3.588-.086.221-.16.446-.221.675.029-.007.057-.015.086-.017.16-.013.285.04.36.072.228.095.385.293.469.52.022.059.038.123.047.189.01.027.014.056.013.085-.025.831-.022 1.662.009 2.492.015.359.038.675.067.924s.069.438.095.502c.085.213.21.493.435.683.225.189.549.316 1.139.189.512-.11.828-.263 1.039-.482.211-.219.337-.525.417-.992.121-.7.363-2.73.393-3.112-.013-.288.029-.509.121-.678.095-.173.241-.279.368-.337.063-.029.123-.048.171-.062-.052-.074-.106-.146-.162-.217-.183-.221-.332-.468-.444-.733-.054-.109-.111-.217-.171-.322-.089-.16-.201-.36-.318-.585-.235-.45-.49-.995-.623-1.527-.132-.531-.151-1.08.187-1.467.3-.344.827-.487 1.617-.407-.023-.07-.037-.128-.077-.221-.179-.421-.412-.816-.694-1.176-.67-.857-1.755-1.706-3.431-1.733h-.077Zm-4.428.035c-.085 0-.169.003-.253.007-.673.039-1.31.234-1.765.717-.456.483-.756 1.274-.691 2.584.013.248.121.943.306 1.768.185.825.447 1.797.761 2.655.315.858.697 1.605 1.06 1.958.183.177.341.248.485.242.145-.007.319-.09.531-.345.388-.468.79-.923 1.207-1.365-.601-.521-.894-1.313-.778-2.1.069-.493.078-.953.07-1.317-.008-.355-.033-.591-.033-.738v-.02s0 0 0 0c0-.767.133-1.529.395-2.251.187-.496.465-1 .881-1.408-.409-.135-1.136-.34-1.923-.379-.084-.004-.169-.007-.253-.007ZM18.104 10.6c-.453.006-.707.123-.84.275-.189.217-.207.597-.089 1.065.117.469.358.993.585 1.428.113.218.223.414.312.573.089.16.155.273.195.37.037.089.077.168.119.241.175-.37.207-.733.189-1.112-.023-.469-.132-.948-.116-1.433.018-.567.13-.937.14-1.375-.164-.021-.328-.032-.493-.032Zm-5.489.077c-.138.001-.276.018-.411.049-.268.065-.527.166-.769.299-.082.044-.16.095-.233.152l-.015.013c.004.097.023.333.031.681.008.38-.001.865-.075 1.389-.159 1.14.668 2.084 1.64 2.085.057-.234.15-.471.243-.721.271-.729.803-1.261.355-3.337-.073-.34-.219-.477-.419-.555-.112-.04-.23-.059-.349-.056Zm5.278.136h.033c.044.001.085.006.12.015.036.008.067.02.092.037.026.016.044.043.05.073v.005s0 0 0 0c.001.032-.007.063-.023.09-.02.037-.044.07-.073.1-.068.074-.158.124-.257.141-.096.012-.194-.013-.273-.069-.033-.022-.062-.048-.087-.079-.022-.024-.036-.053-.042-.085-.003-.031.007-.062.028-.085.022-.025.048-.045.078-.06.064-.036.151-.063.249-.077.037-.005.073-.008.107-.009v.002Zm-5.213.112c.035 0 .073.003.111.009.102.014.193.041.262.081.034.018.064.042.089.071.027.031.04.072.036.113-.006.038-.024.074-.05.103-.027.033-.059.063-.095.087-.087.061-.193.088-.299.075-.108-.018-.206-.071-.28-.152-.031-.033-.058-.069-.079-.109-.022-.035-.032-.077-.027-.118.01-.072.069-.109.127-.13.066-.021.135-.03.205-.027v-.003Zm6.04 4.895h-.002c-.098.036-.179.051-.247.081-.069.026-.125.077-.159.143-.042.077-.078.213-.067.444.03.021.063.037.099.047.114.035.305.057.519.054.425-.005.949-.104 1.227-.233.228-.106.44-.244.629-.41-.929.192-1.453.141-1.775.008-.08-.033-.155-.078-.221-.133Zm-5.354.063h-.014c-.035.003-.087.015-.186.125-.232.26-.313.423-.505.576-.191.152-.44.233-.937.335-.157.032-.247.067-.307.096.019.016.017.02.047.035.073.04.166.075.241.095.213.053.564.115.93.053.366-.063.747-.238 1.071-.693.056-.079.062-.195.016-.319-.047-.125-.149-.232-.221-.262-.043-.021-.089-.034-.136-.04Z" fill="#8ec5ff"/><path d="M31.387 9.012h-2.449v8.32h1.219v-2.578h1.23c1.043 0 1.833-.253 2.37-.759s.806-1.249.806-2.229c0-.906-.269-1.592-.806-2.057s-1.327-.697-2.37-.697Zm1.453 4.151c-.328.318-.812.478-1.453.478h-1.23v-3.516h1.23c.641 0 1.125.139 1.453.416s.492.686.492 1.225c0 .613-.164 1.079-.492 1.397Zm5.707-4.268c-2.047 0-3.07 1.445-3.07 4.336 0 2.812 1.023 4.219 3.07 4.219s3.071-1.406 3.071-4.219c0-2.891-1.023-4.336-3.071-4.336Zm0 7.476c-1.211 0-1.816-1.047-1.816-3.141 0-2.172.605-3.258 1.816-3.258s1.817 1.086 1.817 3.258c0 2.094-.606 3.141-1.817 3.141Zm6.079-6.108c-.221.193-.331.479-.331.858 0 .27.072.489.217.659s.357.321.639.454l1.219.574c.617.289 1.086.615 1.406.979s.48.83.48 1.4c0 .754-.245 1.319-.735 1.696s-1.233.565-2.229.565c-.473 0-.915-.038-1.327-.114s-.794-.19-1.146-.343l.152-1.184c.43.184.845.323 1.245.419s.79.144 1.169.144c.547 0 .953-.096 1.219-.287s.398-.482.398-.873c0-.496-.254-.859-.762-1.09l-1.441-.656c-.566-.258-1.001-.568-1.304-.932s-.454-.814-.454-1.354c0-.727.219-1.289.656-1.688s1.057-.598 1.857-.598c.559 0 1.053.082 1.482.246s.844.432 1.242.803l-.82.832c-.344-.281-.665-.485-.964-.612s-.61-.19-.935-.19c-.402 0-.714.097-.935.29ZM53.22 9.012h2.438v1.113H53.22v7.207h-1.219v-7.207h-2.438V9.012h3.657Zm5.203 1.778c-.438.545-.656 1.315-.656 2.312 0 1.09.219 1.907.656 2.452s1.09.817 1.957.817c.368 0 .691-.036.973-.107v-1.979h-1.652v-1.113h2.812v3.926c-.164.051-.452.122-.864.214s-.882.138-1.409.138c-1.242 0-2.174-.357-2.795-1.072s-.932-1.787-.932-3.217c0-1.355.322-2.405.967-3.149s1.549-1.116 2.713-1.116c.582 0 1.092.091 1.529.272s.76.438.967.771l-.873.867c-.18-.266-.405-.471-.677-.615s-.563-.217-.876-.217c-.789 0-1.402.272-1.84.817Zm10.415 2.687c.471-.461.706-1.109.706-1.945 0-.805-.235-1.426-.706-1.863s-1.138-.656-2.001-.656h-2.859v8.32h1.219v-3.164h1.641c.034 0 .063-.006.096-.007l1.509 3.171h1.406l-1.722-3.403c.27-.113.512-.257.711-.452Zm-3.642-3.352h1.641c.465 0 .827.132 1.087.396s.39.64.39 1.128c0 .445-.13.791-.39 1.037s-.622.369-1.087.369h-1.641v-2.93Zm7.149-1.113h4.289v1.113h-4.289v2.484h3.234v1.113h-3.234v2.496h4.289v1.113h-5.508v-8.32h1.219Zm7.438 1.251c-.221.193-.331.479-.331.858 0 .27.072.489.217.659s.357.321.639.454l1.219.574c.617.289 1.086.615 1.406.979s.48.83.48 1.4c0 .754-.245 1.319-.735 1.696s-1.233.565-2.229.565c-.473 0-.915-.038-1.327-.114s-.794-.19-1.146-.343l.152-1.184c.43.184.845.323 1.245.419s.79.144 1.169.144c.547 0 .953-.096 1.219-.287s.398-.482.398-.873c0-.496-.254-.859-.762-1.09l-1.441-.656c-.566-.258-1.001-.568-1.304-.932s-.454-.814-.454-1.354c0-.727.219-1.289.656-1.688s1.057-.598 1.857-.598c.559 0 1.053.082 1.482.246s.844.432 1.242.803l-.82.832c-.344-.281-.665-.485-.964-.612s-.61-.19-.935-.19c-.402 0-.714.097-.935.29ZM90.837 13.23c0-2.891-1.023-4.336-3.07-4.336s-3.07 1.445-3.07 4.336c0 2.515.824 3.897 2.461 4.163v.056c0 .859.213 1.504.639 1.933.426.43 1.061.645 1.904.645h.48l.117-1.054H89.7c-.461 0-.807-.126-1.037-.378s-.346-.63-.346-1.134v-.062c1.674-.243 2.52-1.625 2.52-4.168Zm-4.887 0c0-2.172.605-3.258 1.816-3.258s1.816 1.086 1.816 3.258c0 2.094-.605 3.141-1.816 3.141s-1.816-1.047-1.816-3.141Zm11.778 2.989v1.113H92.22v-8.32h1.219v7.207h4.289Z" fill="#fff"/></svg>