<?xml version="1.0" encoding="UTF-8"?><svg xmlns="http://www.w3.org/2000/svg" width="79" height="28" role="img" aria-label="Prisma" viewBox="0 0 79 28"><rect width="79" height="28" rx="4" ry="4" fill="#0d3227"/><path d="m20.544 18.187-5.506-11.68c-.147-.293-.427-.493-.76-.507s-.627.147-.8.413l-5.973 9.666c-.173.307-.173.68.013.973l2.92 4.52c.173.267.48.427.787.427.093 0 .187-.013.267-.04l8.466-2.507c.267-.067.48-.253.587-.493.107-.253.107-.533 0-.773Zm-1.24.507-7.186 2.12c-.213.067-.427-.12-.387-.347l2.573-12.293c.053-.227.36-.267.467-.053l4.746 10.093c.093.2-.013.413-.213.48Z" fill="#5ee9b5"/><path d="M31.387 9.012h-2.449v8.32h1.219v-2.578h1.23c1.043 0 1.833-.253 2.37-.759s.806-1.249.806-2.229c0-.906-.269-1.592-.806-2.057s-1.327-.697-2.37-.697Zm1.453 4.151c-.328.318-.812.478-1.453.478h-1.23v-3.516h1.23c.641 0 1.125.139 1.453.416s.492.686.492 1.225c0 .613-.164 1.079-.492 1.397Zm7.871.314c.471-.461.707-1.109.707-1.945 0-.805-.236-1.426-.707-1.863-.47-.438-1.137-.656-2-.656h-2.859v8.32h1.219v-3.164h1.641c.034 0 .063-.006.096-.007l1.509 3.171h1.407l-1.722-3.403c.27-.112.512-.257.711-.452ZM37.07 10.125h1.641c.465 0 .827.132 1.087.396s.39.64.39 1.128c0 .445-.13.791-.39 1.037s-.622.369-1.087.369H37.07v-2.93Zm9.112-1.113h1.928v1.113h-1.928v6.094h1.928v1.113h-5.062v-1.113h1.916v-6.094h-1.916V9.012h3.135Zm5.476 1.251c-.221.193-.331.479-.331.858 0 .27.072.489.217.659s.357.321.639.454l1.219.574c.617.289 1.086.615 1.406.979s.48.83.48 1.4c0 .754-.245 1.319-.735 1.696s-1.233.565-2.229.565c-.473 0-.915-.038-1.328-.114-.412-.076-.794-.19-1.146-.343l.152-1.184c.43.184.845.323 1.246.419.4.096.79.144 1.169.144.547 0 .953-.096 1.219-.287s.398-.482.398-.873c0-.496-.254-.859-.762-1.09l-1.441-.656c-.566-.258-1.001-.568-1.304-.932s-.454-.814-.454-1.354c0-.727.219-1.289.656-1.688.438-.398 1.057-.598 1.858-.598.559 0 1.053.082 1.482.246s.844.432 1.242.803l-.82.832c-.344-.281-.665-.485-.964-.612s-.61-.19-.935-.19c-.402 0-.714.097-.935.29Zm9.765-1.251h.984v8.32h-1.172v-6.844h-.152l-.902 3.445h-1.078l-.902-3.445h-.152v6.844h-1.172v-8.32h1.816l.902 3.574h.094l.902-3.574h.832Zm7.271 8.32h1.23l-2.402-8.32h-1.699l-2.402 8.32h1.23l.546-2.027h2.951l.546 2.027Zm-3.197-3.141 1.123-4.172h.105l1.123 4.172h-2.352Z" fill="#fff"/></svg>