<?xml version="1.0" encoding="UTF-8"?><svg xmlns="http://www.w3.org/2000/svg" width="79" height="28" role="img" aria-label="Python" viewBox="0 0 79 28"><rect width="79" height="28" rx="4" ry="4" fill="#162642"/><path d="M16.2 19.26c-.408 0-.74.332-.74.74s.332.74.74.74.74-.332.74-.74-.332-.74-.74-.74ZM20 10c1.104 0 2 1.792 2 4 0 1.104-.224 2.104-.584 2.828C21.052 17.552 20.552 18 20 18h-6v.4h4V20c0 1.104-1.792 2-4 2-1.104 0-2.104-.224-2.828-.584C10.448 21.052 10 20.552 10 20v-2c0-3.8.804-3.8 3.8-3.8 2.328 0 3.612 0 4.2-1.304.28-.62.4-1.54.4-2.896H20ZM11.8 8.74c.408 0 .74-.332.74-.74s-.332-.74-.74-.74-.74.332-.74.74.332.74.74.74ZM14 6c2.208 0 4 .896 4 2v2c0 3.8-.808 3.8-4.2 3.8-2.016 0-3.232 0-3.8 1.312-.272.62-.4 1.536-.4 2.888H8c-1.104 0-2-1.792-2-4 0-1.104.224-2.104.584-2.828C6.948 10.448 7.448 10 8 10h6v-.4h-4V8c0-1.104 1.792-2 4-2Z" fill="#8ec5ff"/><path d="M31.387 9.012h-2.449v8.32h1.219v-2.578h1.23c1.043 0 1.833-.253 2.37-.759s.806-1.249.806-2.229c0-.906-.269-1.592-.806-2.057s-1.327-.697-2.37-.697Zm1.453 4.151c-.328.318-.812.478-1.453.478h-1.23v-3.516h1.23c.641 0 1.125.139 1.453.416s.492.686.492 1.225c0 .613-.164 1.079-.492 1.397Zm9.077-4.151-2.76 5.328v2.992h-1.219V14.34l-2.76-5.328h1.289l2.027 4.16h.105l2.028-4.16h1.289Zm4.271 0h2.438v1.113h-2.438v7.207h-1.219v-7.207h-2.438V9.012h3.656Zm7.898 0h1.219v8.32h-1.219v-3.586h-2.953v3.586h-1.218v-8.32h1.218v3.621h2.953V9.012Zm5.555-.117c-2.047 0-3.07 1.445-3.07 4.336 0 2.812 1.023 4.219 3.07 4.219s3.07-1.406 3.07-4.219c0-2.891-1.023-4.336-3.07-4.336Zm0 7.476c-1.211 0-1.816-1.047-1.816-3.141 0-2.172.605-3.258 1.816-3.258s1.816 1.086 1.816 3.258c0 2.094-.605 3.141-1.816 3.141ZM69.32 9.012v8.32h-1.57l-2.391-6.328h-.117v6.328h-1.219v-8.32h1.57l2.391 6.328h.117V9.012h1.219Z" fill="#fff"/></svg>