<?xml version="1.0" encoding="UTF-8"?><svg xmlns="http://www.w3.org/2000/svg" width="107" height="28" role="img" aria-label="SQLAlchemy" viewBox="0 0 107 28"><rect width="107" height="28" rx="4" ry="4" fill="#40131f"/><path d="M17.609 19.448c1.11-.867 1.042-2.478-.163-3.765-1.503-1.598-1.977-1.53-4.645.691-2.641 2.207-2.655 2.112.501 3.128 2.099.677 3.4.65 4.307-.054Zm1.423-6.201c2.235 1.544 2.275 3.887.122 6.338-1.91 2.18-3.887 2.776-7.259 2.221-.38-.068-1.368-.312-2.181-.542l-1.49-.42.758-1.395.772-1.409-.623-.758c-.866-1.084-1.99-3.44-2.004-4.212-.014-1.774 2.302-4.361 5.146-5.742 1.95-.962 3.494-.989 5.431-.068l1.463.677.433-.609c.23-.325.42-.772.42-.962S20.21 6 20.44 6s.433.067.433.135c0 .176-1.707 4.47-1.815 4.578-.054.054-.514-.163-1.029-.474-1.49-.867-3.345-1.449-4.781-1.49-3.358-.081-4.523 3.196-2.153 6.054l.826 1.016 2.275-1.842c2.56-2.058 2.844-2.099 4.835-.731Z" fill="#ffa1ad"/><path d="M98.169 9.012l-2.76 5.328v2.992H94.19V14.34L91.43 9.012h1.289l2.027 4.16h.105l2.027-4.16h1.289Zm-8.81 0h1.172v8.32H89.359V10.488h-.152l-.902 3.445H87.227l-.902-3.445h-.152v6.844H85.001V9.012h1.816l.902 3.574h.094l.902-3.574h.645Zm-11.202.001h5.508v1.113H79.376V12.61H82.61v1.113H79.376v2.496h4.289v1.113H78.157V9.012Zm-2.976 3.62V9.012H76.4v8.32H75.181V13.746H72.228v3.586H71.009V9.012h1.219v3.621h2.953ZM67.41 9.975c-.753 0-1.358.271-1.813.814s-.683 1.314-.683 2.314c0 2.18.941 3.27 2.824 3.27.567 0 1.125-.118 1.676-.352l.27 1.031c-.68.265-1.395.398-2.145.398-2.586 0-3.879-1.43-3.879-4.289 0-1.355.326-2.405.979-3.149s1.572-1.116 2.76-1.116c.574 0 1.074.091 1.5.272s.737.44.932.776l-.867.861c-.176-.265-.399-.47-.671-.615s-.566-.217-.882-.217Zm-9.128-.963v7.207h4.289v1.113H57.063V9.012h1.219Zm-4.495 5.179H51.435l1.123-4.172h.105l1.123 4.172ZM53.46 9.012H51.761l-2.403 8.32h1.23l.546-2.027h2.952l.546 2.027h1.23L53.46 9.012Zm-9.241 0v7.207h4.289v1.113H43V9.012h1.219Zm-5.672 7.359c-1.211 0-1.816-1.047-1.816-3.141 0-2.172.605-3.258 1.816-3.258s1.817 1.086 1.817 3.258c0 2.094-.606 3.141-1.817 3.141Zm.552 1.027c1.674-.243 2.52-1.625 2.52-4.168 0-2.891-1.024-4.336-3.071-4.336s-3.07 1.445-3.07 4.336c0 2.515.825 3.897 2.461 4.163v.056c0 .86.213 1.504.639 1.933.426.43 1.061.645 1.905.645h.48l.117-1.054h-.598c-.462 0-.807-.126-1.038-.378s-.346-.63-.346-1.134v-.062Zm-8.538-7.137c.221-.193.533-.29.935-.29.325 0 .636.063.935.19s.62.331.964.612l.82-.832c-.398-.371-.813-.639-1.242-.803s-.923-.246-1.482-.246c-.8 0-1.42.199-1.857.598s-.656.961-.656 1.688c0 .54.151.99.454 1.354s.738.674 1.304.932l1.441.656c.508.231.762.594.762 1.09 0 .391-.132.682-.398.873s-.672.287-1.219.287c-.379 0-.769-.048-1.169-.144s-.815-.235-1.245-.419l-.152 1.184c.352.153.734.267 1.146.343s.854.114 1.327.114c.996 0 1.739-.188 2.229-.565s.735-.942.735-1.696c0-.57-.16-1.036-.48-1.4s-.789-.69-1.406-.979l-1.219-.574c-.282-.133-.494-.284-.639-.454s-.217-.389-.217-.659c0-.379.11-.665.331-.858Z" fill="#fff"/></svg>