<?xml version="1.0" encoding="UTF-8"?><svg xmlns="http://www.w3.org/2000/svg" width="79" height="28" role="img" aria-label="SQLite" viewBox="0 0 79 28"><rect width="79" height="28" rx="4" ry="4" fill="#202041"/><path d="M8.071 6.71h9.563c-.043.044-.088.084-.132.129-1.475 1.566-2.78 4.341-3.2 6.527l.029.21c.005.01.007.025.012.035l-.133.013c-.09.264-.175.529-.255.796l.027.254c.011.021.009.041.021.065l-.145.018c-.064.229-.117.462-.156.697-.015.094-.025.177-.025.257 0 .081-.012.157.065.288.063.106.165.391.246.705.129.524.234 1.052.315 1.585.003.039.007.092.011.133-.024.602-.012 1.205.034 1.805H8.07c-.675-.002-1.221-.548-1.223-1.223V7.933c.002-.674.549-1.221 1.223-1.224Zm12.38-.363c1.678 1.497.011 4.92-1.518 7.328-1.112.357-2.409 1.147-2.409 1.147s.108-.057.508-.225c.271-.114 1.082-.306 1.575-.419-.823 1.241-1.528 2.111-1.528 2.111s-1.436.583-1.881 1.941c.257-1.449.685-2.961 1.287-4.571.539-1.439 2.338-5.325 3.667-6.525-1.458 1.163-3.051 3.597-4.2 6.63-.679 2.009-1.047 3.937-1.107 5.536-.04 1.045.051 1.953.273 2.645l-.103.056c-.151-.351-.27-1.007-.333-1.771-.05-.609-.062-1.221-.037-1.832l-.011-.149s-.133-.894-.323-1.627c-.084-.325-.18-.62-.281-.791-.052-.088.006-.449.151-.985.085.147.443.774.514.976.081.229.098.295.098.295s-.196-1.011-.519-1.6c.071-.239.155-.502.251-.784.112.196.365.646.457.859.008.017.015.035.022.053l.033.097c.051.15.064.197.064.197-.032-.157-.068-.314-.109-.469-.081-.312-.205-.721-.363-1.041.405-2.11 1.71-4.872 3.116-6.363.116-.124.238-.243.365-.357.822-.729 1.654-.976 2.342-.363" fill="#a3b3ff"/><path d="M69.603 10.126H65.314V12.61h3.234v1.113H65.314v2.496h4.289v1.113H64.095V9.012h5.508v1.113ZM59.033 9.012h3.656v1.113H60.251v7.207H59.032V10.125H56.594V9.012h2.438Zm-7.038 0h3.146v1.113H53.213v6.094h1.928v1.113H50.078V16.219h1.917V10.125H50.078V9.012h1.917Zm-7.776 0v7.207h4.289v1.113H43V9.012h1.219Zm-5.672 7.359c-1.211 0-1.816-1.047-1.816-3.141 0-2.172.605-3.258 1.816-3.258s1.817 1.086 1.817 3.258c0 2.094-.606 3.141-1.817 3.141Zm.552 1.027c1.674-.243 2.52-1.625 2.52-4.168 0-2.891-1.024-4.336-3.071-4.336s-3.07 1.445-3.07 4.336c0 2.515.825 3.897 2.461 4.163v.056c0 .86.213 1.504.639 1.933.426.43 1.061.645 1.905.645h.48l.117-1.054h-.598c-.462 0-.807-.126-1.038-.378s-.346-.63-.346-1.134v-.062Zm-8.538-7.137c.221-.193.533-.29.935-.29.325 0 .636.063.935.19s.62.331.964.612l.82-.832c-.398-.371-.813-.639-1.242-.803s-.923-.246-1.482-.246c-.8 0-1.42.199-1.857.598s-.656.961-.656 1.688c0 .54.151.99.454 1.354s.738.674 1.304.932l1.441.656c.508.231.762.594.762 1.09 0 .391-.132.682-.398.873s-.672.287-1.219.287c-.379 0-.769-.048-1.169-.144s-.815-.235-1.245-.419l-.152 1.184c.352.153.734.267 1.146.343s.854.114 1.327.114c.996 0 1.739-.188 2.229-.565s.735-.942.735-1.696c0-.57-.16-1.036-.48-1.4s-.789-.69-1.406-.979l-1.219-.574c-.282-.133-.494-.284-.639-.454s-.217-.389-.217-.659c0-.379.11-.665.331-.858Z" fill="#fff"/></svg>